<svg xmlns="http://www.w3.org/2000/svg" width="382.78" height="365.744" viewBox="0 0 382.78 365.744">
  <g id="_9952edbf30a3c55f6d67796a105a7562" data-name="9952edbf30a3c55f6d67796a105a7562" transform="translate(130.368 -8.677) rotate(30)">
    <path id="Path_16" data-name="Path 16" d="M207.055,81.418C200.925,52.381,178,17.976,142.145,11.053a63.3,63.3,0,0,0-50.419,12.44A64.313,64.313,0,0,0,92,126.61a63.34,63.34,0,0,0,59.237,10.041,3.088,3.088,0,0,1,2.9.432,3.167,3.167,0,0,1,1.259,2.733C152.5,204,94.94,229.095,83.429,233.474a8.495,8.495,0,0,0-5.394,9.142s1.468,10.777,1.47,10.791a8.65,8.65,0,0,0,11.581,6.771C222.444,206.853,213.06,109.872,207.055,81.418ZM88.577,251.17l-1.256-9.238c13.706-5.329,74.252-32.745,77.368-101.7A12.419,12.419,0,0,0,148.2,127.873a54.077,54.077,0,0,1-50.549-8.645,55.029,55.029,0,0,1-.253-88.371,53.961,53.961,0,0,1,42.986-10.682c31.693,6.121,52.063,37.032,57.581,63.163,5.613,26.6,14.268,117.14-109.382,167.834Z" transform="translate(87.264 0)" fill="#d6d6d6"/>
    <path id="Path_17" data-name="Path 17" d="M202.716,37.842a4.645,4.645,0,1,0,3.337,8.671c.174-.07,17.291-6.467,27.246,5.847a4.647,4.647,0,1,0,7.229-5.84C226.365,29.006,203.675,37.473,202.716,37.842ZM76.146,11.053a63.3,63.3,0,0,0-50.419,12.44A64.313,64.313,0,0,0,26,126.61a63.34,63.34,0,0,0,59.237,10.041,3.089,3.089,0,0,1,2.9.432,3.167,3.167,0,0,1,1.259,2.733C86.5,204,28.94,229.095,17.429,233.474a8.495,8.495,0,0,0-5.394,9.142s1.468,10.777,1.47,10.791a8.65,8.65,0,0,0,11.581,6.771C156.444,206.853,147.06,109.872,141.055,81.418,134.925,52.381,112,17.976,76.146,11.053ZM22.577,251.172l-1.261-9.24c13.708-5.329,74.254-32.745,77.371-101.7a12.419,12.419,0,0,0-16.492-12.363,54.077,54.077,0,0,1-50.549-8.645,55.029,55.029,0,0,1-.253-88.371A53.961,53.961,0,0,1,74.378,20.175c31.693,6.121,52.063,37.032,57.581,63.163,5.613,26.6,14.268,117.14-109.382,167.833Z" transform="translate(0 0)" fill="#d6d6d6"/>
    <path id="Path_18" data-name="Path 18" d="M22.989,23.35a4.645,4.645,0,1,0,3.337,8.671c.174-.07,17.291-6.467,27.246,5.847a4.77,4.77,0,0,0,6.535.694A4.644,4.644,0,0,0,60.8,32.03c-14.163-17.516-36.853-9.05-37.812-8.68Z" transform="translate(26.463 14.492)" fill="#d6d6d6"/>
  </g>
</svg>
