<svg xmlns="http://www.w3.org/2000/svg" xmlns:xlink="http://www.w3.org/1999/xlink" width="84.39" height="76.132" viewBox="0 0 84.39 76.132">
  <defs>
    <linearGradient id="linear-gradient" x1="0.5" x2="0.5" y2="1" gradientUnits="objectBoundingBox">
      <stop offset="0" stop-color="#fe894d"/>
      <stop offset="1" stop-color="#fe4b75"/>
    </linearGradient>
    <linearGradient id="linear-gradient-2" x1="0.5" x2="0.5" y2="1" gradientUnits="objectBoundingBox">
      <stop offset="0.394" stop-color="#80e8be"/>
      <stop offset="1" stop-color="#00c278"/>
    </linearGradient>
    <linearGradient id="linear-gradient-3" x1="0.5" x2="0.5" y2="1" gradientUnits="objectBoundingBox">
      <stop offset="0" stop-color="#a553ff"/>
      <stop offset="1" stop-color="#5621ff"/>
    </linearGradient>
  </defs>
  <g id="_22fb1799d4eef82c80bc4402726da818" data-name="22fb1799d4eef82c80bc4402726da818" transform="translate(-36.499 -52.498)">
    <path id="Path_19" data-name="Path 19" d="M94.163,176.986a31.043,31.043,0,0,1-5.376,4.586A35.248,35.248,0,0,1,69,187.489,35.957,35.957,0,0,1,54.53,184.5C48.357,190.793,38.5,190.22,38.5,190.22l7.752-10.911a26.962,26.962,0,0,1-9.75-20.432,26.6,26.6,0,0,1,7.838-18.638,31.649,31.649,0,0,1,5.869-4.71,28.57,28.57,0,0,0-2.034,10.584c0,17.681,16.279,32.012,36.357,32.012a40.91,40.91,0,0,0,9.634-1.138Z" transform="translate(0 -61.603)" fill="url(#linear-gradient)"/>
    <path id="Path_20" data-name="Path 20" d="M135.055,143.741a26.488,26.488,0,0,1-7.334,18.109,40.9,40.9,0,0,1-9.634,1.138c-20.078,0-36.357-14.331-36.357-32.012a28.57,28.57,0,0,1,2.034-10.584,35.452,35.452,0,0,1,18.793-5.264C120.505,115.129,135.055,127.937,135.055,143.741Z" transform="translate(-33.558 -46.468)" fill="url(#linear-gradient-2)"/>
    <path id="Path_21" data-name="Path 21" d="M143.541,107.367l8.674,12.209s-11.035.64-17.939-6.395a39.3,39.3,0,0,1-6.555,2.2,40.9,40.9,0,0,1-9.634,1.138c-20.078,0-36.357-14.331-36.357-32.012a28.571,28.571,0,0,1,2.034-10.584C88.726,61.446,102.221,52.5,118.087,52.5c20.081,0,36.36,14.328,36.36,32.011A30.163,30.163,0,0,1,143.541,107.367Z" transform="translate(-33.558 0)" fill="url(#linear-gradient-3)"/>
    <path id="Path_22" data-name="Path 22" d="M187.444,137.82h-.665a7.216,7.216,0,0,1-7.024-7.215,6.478,6.478,0,0,1,2.16-5.007,7.628,7.628,0,0,1,5.339-1.97,7.19,7.19,0,0,1,5.767,2.777q2.3,2.777,2.3,7.9a19.7,19.7,0,0,1-2.017,8.8,19.209,19.209,0,0,1-4.937,6.5q-2.919,2.4-5.2,2.4a3.112,3.112,0,0,1-2.373-.9,3.244,3.244,0,0,1-.855-2.325A3.281,3.281,0,0,1,181.8,145.7a12.918,12.918,0,0,0,3.987-3.228,8.159,8.159,0,0,0,1.661-4.651Zm-18.973,0h-.617a7.218,7.218,0,0,1-6.977-7.215,6.648,6.648,0,0,1,2.16-5.031,7.478,7.478,0,0,1,5.34-2.041,7.1,7.1,0,0,1,5.791,2.848q2.278,2.848,2.278,7.927a19.781,19.781,0,0,1-1.187,6.882,20.549,20.549,0,0,1-3.062,5.625,16.743,16.743,0,0,1-4.034,3.8,7.34,7.34,0,0,1-3.868,1.4,3.143,3.143,0,0,1-2.4-.878,3.28,3.28,0,0,1-.831-2.349,3.219,3.219,0,0,1,1.851-3.086,12.425,12.425,0,0,0,3.94-3.251A9.1,9.1,0,0,0,168.472,137.82Z" transform="translate(-92.28 -52.703)" fill="#fff"/>
  </g>
</svg>
