<svg xmlns="http://www.w3.org/2000/svg" width="124.715" height="85.401" viewBox="0 0 124.715 85.401">
  <path id="_1b55d1da0d38119e0249b30993913d63" data-name="1b55d1da0d38119e0249b30993913d63" d="M16.506,83.584a24.613,24.613,0,0,1-3.461-.173A8.063,8.063,0,0,1,8.1,69.569a17.961,17.961,0,0,0,5.987-14.4A25.886,25.886,0,0,1,1.521,24.025,24.225,24.225,0,0,1,7.647,14.37,26.094,26.094,0,0,1,34.918,7.76,29.174,29.174,0,0,1,54.471,31.12a44.124,44.124,0,0,1-4.257,28.032v.277C39.555,76.179,29.38,83.584,16.506,83.584ZM15.226,74.9c7.648.381,16.265-2.215,27.409-19.934A35.749,35.749,0,0,0,46.1,32.816,20.764,20.764,0,0,0,32.253,15.962a17.3,17.3,0,0,0-18.376,4.5,15.746,15.746,0,0,0-3.945,6.368,17.3,17.3,0,0,0,9.863,21.457,4.326,4.326,0,0,1,2.63,3.149,25.99,25.99,0,0,1-7.2,23.464ZM46.373,57.145Zm34.815,26.44a24.37,24.37,0,0,1-3.461-.173,8.064,8.064,0,0,1-4.949-13.843,17.961,17.961,0,0,0,5.987-14.4A25.921,25.921,0,0,1,66.2,24.025a24.536,24.536,0,0,1,6.022-9.655,26.128,26.128,0,0,1,27.34-6.61,29.1,29.1,0,0,1,19.553,23.36,44.124,44.124,0,0,1-4.257,28.032,2.039,2.039,0,0,1,0,.277C104.236,76.179,94.027,83.584,81.187,83.584ZM79.872,74.9c7.683.381,16.265-2.215,27.444-19.934a35.334,35.334,0,0,0,3.461-22.149,1.246,1.246,0,0,0,0-.346A20.418,20.418,0,0,0,96.934,15.962a17.3,17.3,0,0,0-18.376,4.5,15.3,15.3,0,0,0-3.841,6.368,17.3,17.3,0,0,0,9.863,21.457,4.361,4.361,0,0,1,2.6,3.149,25.921,25.921,0,0,1-7.3,23.464Zm31.147-17.754Z" transform="matrix(-0.998, -0.07, 0.07, -0.998, 119.068, 91.738)" fill="#e3e3e3"/>
</svg>
